# Blender 4.3.2
# www.blender.org
mtllib RTS_Dung_MAP_1_Layer.mtl
o Cube
v 3.027342 0.141643 -5.365062
v 3.027342 -0.141643 -5.365062
v 1.182176 0.141643 3.227018
v 1.182176 -0.141643 3.227018
v -3.416230 0.141643 -3.227018
v -3.416230 -0.141643 -3.227018
v -1.182176 0.141643 3.227018
v -1.182176 -0.141643 3.227018
v -1.822676 -0.141643 -7.302923
v -1.822676 0.141643 -7.302923
v -0.578285 -0.141643 -7.650064
v -0.578285 0.141643 -7.650064
v -7.321750 -0.141643 -15.393246
v -7.321750 0.141643 -15.393246
v -6.197834 -0.141643 -17.446945
v -6.197834 0.141643 -17.446945
v -4.073701 0.141643 -5.101202
v -4.073701 -0.141643 -5.101202
v -3.788751 -0.141643 -6.427837
v -3.788751 0.141643 -6.427837
v -5.468174 0.141643 -0.640028
v -5.468174 -0.141643 -0.640028
v -9.624301 -0.141643 -7.131223
v -9.624301 0.141643 -7.131223
v -10.689467 0.141643 1.493250
v -10.689467 -0.141643 1.493250
v -10.826095 -0.141643 -6.389880
v -10.826095 0.141643 -6.389880
v 2.354879 -0.141643 -14.341368
v 2.354879 0.141643 -14.341368
v -0.268076 -0.141643 -19.820555
v -0.268076 0.141643 -19.820555
v 1.182176 0.141643 5.567377
v 1.182176 -0.141643 5.567377
v -1.182176 0.141643 5.567377
v -1.182176 -0.141643 5.567377
v -15.637861 0.141643 2.173199
v -15.637861 -0.141643 2.173199
v -11.639557 -0.141643 -5.798786
v -11.639557 0.141643 -5.798786
v -8.277783 -0.141643 -14.964259
v -8.277783 0.141643 -14.964259
v -10.399571 -0.141643 -15.953640
v -10.399571 0.141643 -15.953640
v -7.862856 -0.141643 -14.096343
v -7.862856 0.141643 -14.096343
v -11.611987 -0.141643 -15.085724
v -11.611987 0.141643 -15.085724
v -8.632234 -0.141643 -9.110440
v -8.632234 0.141643 -9.110440
v -12.421460 -0.141643 -8.287863
v -12.421460 0.141643 -8.287863
v -16.652916 0.141643 -2.563713
v -16.652916 -0.141643 -2.563713
v -17.645336 -0.141643 -0.437451
v -17.645336 0.141643 -0.437451
v -11.425874 -0.141643 -6.887189
v -11.425874 0.141643 -6.887189
v -11.794117 -0.141643 -5.951502
v -11.794117 0.141643 -5.951502
v -11.900066 -0.141643 -7.412177
v -11.900066 0.141643 -7.412177
v -12.268310 -0.141643 -5.645460
v -12.268310 0.141643 -5.645460
v -13.239848 -0.141643 -6.881739
v -13.239848 0.141643 -6.881739
v -13.046412 -0.141643 -5.843985
v -13.046412 0.141643 -5.843985
v -13.588655 -0.141643 -6.517328
v -13.588655 0.141643 -6.517328
v -13.459510 -0.141643 -5.886050
v -13.459510 0.141643 -5.886050
vn -0.0000 1.0000 -0.0000
vn -1.0000 -0.0000 -0.0000
vn -0.9450 -0.0000 0.3271
vn -0.0000 -1.0000 -0.0000
vn 0.9777 -0.0000 0.2100
vn -0.9436 -0.0000 0.3310
vn 0.9020 -0.0000 -0.4318
vn 0.5353 -0.0000 -0.8447
vn 0.9159 -0.0000 0.4015
vn -0.8270 -0.0000 0.5621
vn 0.1197 -0.0000 -0.9928
vn -0.4066 -0.0000 -0.9136
vn 0.9545 -0.0000 0.2983
vn 0.3782 -0.0000 0.9257
vn -0.5250 -0.0000 -0.8511
vn -0.3716 -0.0000 -0.9284
vn -0.0000 -0.0000 1.0000
vn 1.0000 -0.0000 -0.0000
vn -0.7927 -0.0000 0.6096
vn 0.1361 -0.0000 0.9907
vn 0.9022 -0.0000 -0.4313
vn -0.3349 -0.0000 -0.9423
vn 0.4094 -0.0000 0.9124
vn -0.5821 -0.0000 -0.8131
vn 0.8940 -0.0000 0.4481
vn -0.9930 -0.0000 -0.1182
vn 0.9883 -0.0000 0.1525
vn -0.9062 -0.0000 -0.4229
vn -0.7655 -0.0000 0.6434
vn -0.5422 -0.0000 -0.8402
vn 0.6383 -0.0000 -0.7698
vn -0.7029 -0.0000 0.7113
vn 0.7421 -0.0000 -0.6703
vn 0.5423 -0.0000 0.8402
vn -0.2472 -0.0000 0.9690
vn -0.3681 -0.0000 -0.9298
vn -0.9797 -0.0000 0.2004
vn -0.7224 -0.0000 -0.6915
vn -0.1013 -0.0000 0.9949
vt 0.625000 0.500000
vt 0.875000 0.500000
vt 0.875000 0.750000
vt 0.625000 0.750000
vt 0.625000 0.000000
vt 0.375000 0.000000
vt 0.625000 0.250000
vt 0.375000 0.250000
vt 0.125000 0.500000
vt 0.375000 0.500000
vt 0.375000 0.750000
vt 0.125000 0.750000
vt 0.625000 1.000000
vt 0.375000 1.000000
s 0
usemtl Material
f 1/1/1 5/2/1 7/3/1 3/4/1
f 7/5/2 8/6/2 36/6/2 35/5/2
f 8/6/3 7/5/3 5/7/3 6/8/3
f 6/9/4 2/10/4 4/11/4 8/12/4
f 2/10/5 1/1/5 3/4/5 4/11/5
f 6/8/6 5/7/6 17/7/6 18/8/6
f 30/1/7 29/10/7 31/10/7 32/1/7
f 1/1/8 2/10/8 11/10/8 12/1/8
f 5/7/1 1/1/1 12/1/1 10/7/1 20/2/1 17/7/1
f 11/10/4 9/9/4 13/9/4 15/10/4
f 15/10/4 13/9/4 41/9/4 43/10/4
f 10/2/1 12/1/1 16/1/1 14/2/1
f 12/1/9 11/10/9 29/10/9 30/1/9
f 9/8/10 10/7/10 14/7/10 13/8/10
f 20/7/11 19/8/11 23/8/11 24/7/11
f 6/8/4 18/8/4 19/9/4 9/8/4 11/10/4 2/10/4
f 10/7/12 9/8/12 19/8/12 20/7/12
f 11/10/4 15/10/4 31/10/4 29/10/4
f 23/9/4 22/9/4 26/9/4 27/9/4
f 17/2/1 20/2/1 24/2/1 21/2/1
f 19/9/4 18/9/4 22/9/4 23/9/4
f 18/8/13 17/7/13 21/7/13 22/8/13
f 27/9/4 26/9/4 38/9/4 39/9/4
f 22/8/14 21/7/14 25/7/14 26/8/14
f 24/7/15 23/8/15 27/8/15 28/7/15
f 21/2/1 24/2/1 28/2/1 25/2/1
f 16/1/1 12/1/1 30/1/1 32/1/1
f 15/10/16 16/1/16 32/1/16 31/10/16
f 34/11/17 33/4/17 35/13/17 36/14/17
f 8/12/4 4/11/4 34/11/4 36/12/4
f 3/4/1 7/3/1 35/3/1 33/4/1
f 4/11/18 3/4/18 33/4/18 34/11/18
f 38/8/19 37/7/19 56/7/19 55/8/19
f 26/8/20 25/7/20 37/7/20 38/8/20
f 40/2/1 28/2/1 58/2/1 60/2/1
f 25/2/1 28/2/1 40/2/1 37/2/1
f 41/8/21 42/7/21 46/7/21 45/8/21
f 16/1/22 15/10/22 43/10/22 44/1/22
f 13/8/23 14/7/23 42/7/23 41/8/23
f 14/2/1 16/1/1 44/1/1 42/2/1
f 47/10/4 45/9/4 49/9/4 51/10/4
f 42/2/1 44/1/1 48/1/1 46/2/1
f 43/10/4 41/9/4 45/9/4 47/10/4
f 44/1/24 43/10/24 47/10/24 48/1/24
f 49/8/25 50/7/25 24/7/25 23/8/25
f 48/1/26 47/10/26 51/10/26 52/1/26
f 45/8/27 46/7/27 50/7/27 49/8/27
f 46/2/1 48/1/1 52/1/1 50/2/1
f 55/8/28 56/7/28 53/7/28 54/8/28
f 50/2/1 52/1/1 28/1/1 24/2/1
f 51/10/4 49/9/4 23/9/4 27/10/4
f 52/1/29 51/10/29 27/10/29 28/1/29
f 40/7/30 39/8/30 54/8/30 53/7/30
f 37/2/1 40/2/1 53/2/1 56/2/1
f 39/9/4 38/9/4 55/9/4 54/9/4
f 57/9/4 59/9/4 63/9/4 61/9/4
f 27/9/4 39/9/4 59/9/4 57/9/4
f 28/7/31 27/8/31 57/8/31 58/7/31
f 39/8/32 40/7/32 60/7/32 59/8/32
f 64/2/1 62/2/1 66/2/1 68/2/1
f 58/7/33 57/8/33 61/8/33 62/7/33
f 60/2/1 58/2/1 62/2/1 64/2/1
f 59/8/34 60/7/34 64/7/34 63/8/34
f 65/9/4 67/9/4 71/9/4 69/9/4
f 63/8/35 64/7/35 68/7/35 67/8/35
f 61/9/4 63/9/4 67/9/4 65/9/4
f 62/7/36 61/8/36 65/8/36 66/7/36
f 70/7/37 69/8/37 71/8/37 72/7/37
f 66/7/38 65/8/38 69/8/38 70/7/38
f 68/2/1 66/2/1 70/2/1 72/2/1
f 67/8/39 68/7/39 72/7/39 71/8/39
